<?xml version="1.0" encoding="UTF-8"?><svg id="Layer_2" xmlns="http://www.w3.org/2000/svg" viewBox="0 0 514.98 231.55"><defs><style>.cls-1{fill:#6b890f;}.cls-2{fill:#99ae33;}.cls-3{fill:#a0b776;}.cls-4{fill:#8ba627;}.cls-5{fill:#8ba527;}.cls-6{fill:#8ba528;}.cls-7{fill:#8ca628;}.cls-8{fill:#90a92e;}.cls-9{fill:#b6c54d;}.cls-10{fill:#b4c553;}.cls-11{fill:#8ea72a;}.cls-12{fill:#859c04;}.cls-13{fill:#abbe4e;}.cls-14{fill:#a7bb48;}.cls-15{fill:#366300;}.cls-16{fill:#6d8a10;}.cls-17{fill:#292234;}.cls-18{fill:#5a4236;}.cls-19{fill:#382f44;}.cls-20{fill:#594236;}.cls-21{fill:#567c04;}.cls-22{fill:#3c3249;}.cls-23{fill:#604336;}.cls-24{fill:#527c04;}.cls-25{fill:#527c02;}.cls-26{fill:#749017;}.cls-27{fill:#527d06;}.cls-28{fill:#4f7b01;}.cls-29{fill:#517d04;}.cls-30{fill:#517b02;}.cls-31{fill:#517c04;}.cls-32{fill:#547500;}.cls-33{fill:#507b01;}.cls-34{fill:#507b02;}</style></defs><g id="Layer_1-2"><g id="Mobile"><path class="cls-19" d="m39.79,90.65l12.13,4.31,19.94,1.35,24.53,2.96,15.36-2.16,18.33-2.16,13.48-4.58,11.86-5.39.54,4.31v9.43l.54,3.23,8.35-7.28,11.05.81,5.39,4.85,1.35,8.09-2.96,8.35-8.09,5.66,2.7,3.5,11.05,26.68-2.7,31.53-14.28,22.91-25.06,15.36-26.14,6.74-40.43-.54-34.5-6.47-22.91-14.28-14.01-24.53-3.77-23.45,5.66-21.83,8.35-15.09-.54-1.35-7.55-5.12-1.89-12.67,7.28-8.89,10.78-.54,8.89,8.89-2.16-11.32,1.66-7.52,7.77,6.18Zm-20.08,13.21c-3.2,0-5.79,2.65-5.79,5.93s2.59,5.93,5.79,5.93,5.79-2.65,5.79-5.93-2.59-5.93-5.79-5.93Zm142.16,6.06c0,3.65,2.78,6.6,6.2,6.6s6.2-2.96,6.2-6.6-2.78-6.6-6.2-6.6-6.2,2.96-6.2,6.6Z"/><polygon class="cls-17" points="34.18 82.14 45.77 74.59 59.51 70.55 77.57 68.93 104.79 68.67 127.97 71.9 144.14 75.4 152.76 80.79 149.8 88.88 144.41 89.42 134.44 81.6 110.72 78.1 83.23 79.98 61.67 84.3 44.69 88.88 38.76 89.69 34.18 82.14"/><path class="cls-11" d="m153.61,39.91l.02.59c.04,2.2-.83,3.49-2.59,3.86-1.66.35-3.04-.41-3.71-2.02-.27-.64-.42-1.29-.34-1.99.85-3.35,3.19-4.44,5.62-2.63.73.55,1.25,1.19,1,2.19Z"/><path class="cls-7" d="m125.5,18.82c-.02-1.36.26-2.72.03-4.08.99-.32,1.63-.99,2.19-1.87,2.16-3.37,5.62-4.87,9.46-4.04,1.02.22,1.82.1,2.6-.5,1.15.55,1.83,1.75,3.03,2.23-1.28,1.5-.77,2.67,1.48,3.4.08.9.15,1.81,1.17,2.22-1.2.74-1.37,1.99-1.66,3.2-.2.86.44,1.22.84,1.74-1.12.31-1.74,1.04-1.86,2.2-1.02.28-1.95.69-2.86,1.29-3.43,2.25-9.37,1.32-12-1.82-1-1.19-1.82-2.52-2.43-3.96Z"/><path class="cls-34" d="m125.5,18.82c.77.29,1.08.98,1.44,1.64,2.55,4.81,6.02,5.23,10.95,4.55.99-.14,1.9-.6,2.58-1.41.69-.81,1.47-.83,2.32-.29.35.89-.22,1.41-.77,1.93-2.62,2.49-5.84,2.61-9.13,2.18-3.94-.52-6.56-2.81-8.16-6.38-.45-1-.47-1.83.77-2.23Z"/><path class="cls-30" d="m139.78,8.33c-.18,1.18-.75,1.5-1.96,1.16-4.33-1.22-7.9.31-10.17,4.34-.52.93-.99,1.6-2.13.91-.58-.55-.31-1.13-.06-1.72,1.93-4.63,8.14-7.43,12.88-5.78.59.21,1.18.44,1.44,1.09Z"/><path class="cls-29" d="m144.65,21.12c-1.63-.28-1.67-.34-1.32-1.82.14-.59.38-1.17.44-1.77.11-1.07.63-1.52,1.69-1.35.47.21.61.66.56,1.08-.18,1.38-.12,2.86-1.37,3.86Z"/><path class="cls-25" d="m144.3,13.96c-1.29.42-1.58.35-2.11-.58-.15-.26-.21-.58-.35-.85-.76-1.5-.72-1.6.98-1.97,1.27.79,1.79,1.92,1.48,3.4Z"/><path class="cls-7" d="m48.18,41.02c.69.1.94-.59,1.45-.81,1.72-2.18,3.92-3.44,6.73-3.47.95,0,1.86-.2,2.78-.34,1.32.89,2.58,1.83,3.15,3.42.07.18.36.29.55.43.02,1.74.49,3.42.53,5.18.08,3.23-2.79,6.2-6.38,7.07-2.98.73-6.48-.79-7.97-3.53-.97-1.79-1.59-3.66-1.09-5.73.18-.73-.07-1.5.25-2.21Z"/><path class="cls-28" d="m48.18,41.02c.5.73.47,1.54.28,2.34-.87,3.63,1.6,8.36,6.44,8.83,3.5.34,8.49-2.95,7.98-7.1-.14-1.11.09-2.27-.55-3.28-.48-.76.09-1.12.51-1.56.95-.3,1.48.25,1.72,1.01,1,3.15,1.26,6.22-.99,9.06-3.93,4.95-10.86,5.5-14.94,1.14-1.27-1.36-2.06-2.96-2.38-4.8-.16-1.4-.22-2.8.04-4.2q.51-1.67,1.89-1.43Z"/><path class="cls-33" d="m59.14,36.4c-.29.64-.81.9-1.49.83-2.66-.25-4.98.44-6.87,2.41-.28.29-.76.38-1.15.56-.88-1.46-.87-1.75.34-2.83,1.16-1.04,2.44-1.88,4.05-2.07,1.4-.2,2.81-.28,4.21.05.31.35.86.48.92,1.05Z"/><path class="cls-3" d="m46.29,42.45c-.01,1.4-.03,2.8-.04,4.2-.54-1.4-.54-2.8.04-4.2Z"/><path class="cls-21" d="m58.23,35.35c-1.4-.02-2.8-.03-4.21-.05,1.41-.55,2.81-.59,4.21.05Z"/><path class="cls-24" d="m38.41,40.61c-.83-.8-1-1.86-1.13-2.93-.15-.3-.25-.65-.71-.54-.64.19-1.22.52-1.8.84-.37.2-.81.31-1.23.38-.6.1-1.24-.13-1.42-.64-.18-.49.08-1.06.73-1.3.69-.26,1.35-.62,2.02-.94q1.28-.6.87-1.88c-.17-.53-.37-1.06-.51-1.6-.18-.7.04-1.26.76-1.46.65-.18,1.04.23,1.32.77.41.81.31,2.07,1.15,2.41.73.29,1.58-.54,2.4-.81.69-.23,1.28-.15,1.59.52.32.7-.08,1.21-.7,1.51-.78.38-1.59.71-2.4,1.04-.51.21-.63.37-.28.94.45.74.48,1.68.96,2.46.28.45.19.97-.35,1.28-.44.15-.87.23-1.29-.04Z"/><path class="cls-27" d="m38.41,40.61c.43.01.86.03,1.29.04-.45.48-.87.39-1.29-.04Z"/><path class="cls-27" d="m36.57,37.13c.71-.44.67.1.71.54-.24-.18-.47-.36-.71-.54Z"/><path class="cls-34" d="m69.14,62.71c-2.82-.02-5.12-2.33-5.12-5.16,0-2.91,2.34-5.16,5.32-5.12,2.83.04,5.1,2.4,5.04,5.22-.06,2.81-2.41,5.08-5.23,5.06Z"/><path class="cls-8" d="m63.46,29.71c-.01-1.24.77-2.16,1.83-2.16,1.04,0,1.98.97,2.01,2.06.03,1.14-.82,2.08-1.91,2.11-1.17.03-1.92-.75-1.93-2.01Z"/><path class="cls-5" d="m101.11,95.35c-5.99,1.41-12.61.56-18.92.38-2.05-.06-4.11-.73-6.16-.75-.32,0-2.96.12-3.2-.1.65-.73,3.9-1.22,4.78-1.51.4-.13.95-.18,1.02-.68.08-.6-.44-.89-.9-1.06-1.81-.67-3.55-1.53-5.39-2.13-1.36-.45-2.71-.94-4.01-1.56-2-.95-2.26-2.17-.54-3.5,1.3-1,2-2.54,3.44-3.36,2.09-.5,4.21-.42,6.33-.58,9.23-.7,18.47-.27,27.7-.29,4.61-.01,9.22.36,13.79,1.07.49.08.99.14,1.42.43.51.74-.18.83-.59.97-.96.32-1.83.8-2.6,1.44-2.02,1.68-1.85,3.92.47,5.12,2.35,1.2,4.86,1.86,7.52,1.98,1.54.07,3.12.11,4.41,1.19-1.47.52-3,.68-4.54.74-4.55-.99-9.13-1.32-13.77-.7-1.49.2-3,.17-4.48-.13-2.03-.41-3.73-.09-4.76,1.94-.23.45-.63.77-1.02,1.08Z"/><path class="cls-15" d="m120.69,82.23c-2.27-.67-4.64-.86-6.97-1.01-10.97-.74-21.97-.56-32.95-.34-3.34.07-6.73.16-10.05.72-1.08,1.05-2.53.82-3.83,1.07-1.14.21-2.31.3-3.47.46-4.98.73-9.87,1.85-14.63,3.54-1.5.53-2.74,1.94-4.19,2.52-1.23-.28-2.54-.43-3.52-1.3,1.45-2.93,4.46-4.56,7.3-5.62,3.98-1.48,8.14-2.25,12.31-2.99,5.32-.95,10.66-1.67,16.08-1.99,3.37-.2,6.73-.27,10.09-.24,2.38.02,4.75-.63,7.08-.34,5.59.68,11.21.18,16.82.57,8.41.59,16.65,1.94,24.82,3.87,1.88.44,3.7,1.09,5.46,1.92,2.14,1,3.99,2.32,5.13,4.46-1.08.83-2.33,1.24-3.64,1.51-1.4-.4-2.27-1.64-3.59-2.22-1.88-.82-3.81-1.42-5.81-1.85-2.49-.54-4.96-1.14-7.47-1.59-.64-.22-1.32-.26-1.97-.41-.64-.23-1.31-.21-1.98-.25-.4-.05-.78-.13-1.04-.49Z"/><path class="cls-32" d="m43.89,89.28c.65-1.03,2.47-2.04,3.58-2.53,5.04-2.21,10.37-3.27,15.77-4.09,3.4,2.3,3.5,2.74.2,5.44-1.68,1.37-1.81,3.25-2.45,5-4.04-.65-8.04-1.5-11.99-2.59-1.43-.39-3.82-.43-5.1-1.23Z"/><path class="cls-12" d="m60.98,93.1c-.53-2.73.87-4.51,2.94-5.93.42-.29.8-.58,1.08-1,.64-.98.55-1.73-.63-2.21-.57-.23-1.17-.5-1.14-1.3,2.49-.36,4.99-.71,7.48-1.07-.23,1.19-.98,1.95-1.96,2.61-.75.51-1.78,1.05-1.7,2.06.09,1.09,1.31,1.23,2.13,1.55,2.72,1.08,5.47,2.07,8.2,3.1.17.07.35.13.52.21.74.36,1.61.8,1.62,1.64,0,.97-1.12.94-1.75,1.03-.95.13-1.6,1.04-2.61.87-3.49.06-6.9-.58-10.34-1.03-1.29-.17-2.57-.36-3.86-.54Z"/><path class="cls-2" d="m120.69,82.23c.36.02.73.04,1.09.06.59.38,1.32-.04,1.91.31.64.06,1.32-.11,1.87.37-1.12.84-2.49.62-3.75.86-1.11.21-2.22.37-3.21.92-1.62.9-1.79,2.18-.47,3.46,1.77,1.71,4.01,1.74,6.15,1.27,2.67-.59,5.26-1.52,7.9-2.24,1.62-.44,1.14-1.64,1.23-2.67,2.54.39,4.86,1.38,7.11,2.57.84.44,2.91,1.21,3.49,1.95-4.13,1.69-9.87,2.81-14.31,3.33-2.98-.85-6.14-.53-9.11-1.5-1.25-.41-2.48-.85-3.61-1.5-1.65-.95-2.17-2.91-1.06-4.48,1.15-1.62,2.65-2.76,4.78-2.71Z"/><path class="cls-26" d="m100.26,95.8c.2-1.16,1.86-2.43,2.5-3.33.47-.66,1.15-.85,1.96-.84,2.11,0,4.21.77,6.31.35,2.48-.5,4.96-.33,7.44-.31,1.85.01,3.69.34,5.52.7.53.11.95.28,1.17.79-.9.72-2.06.48-3.05.6-2.9.33-5.81.63-8.7.97-2.79.33-5.53.51-8.3,1.03-1.27.24-3.54.04-4.85.04Z"/><path class="cls-9" d="m129.3,19.94c.01-.84-.39-1.56-.62-2.34-.33-1.14-.29-2.2.54-3.16,1.22-1.43,2.23-1.46,3.28.04.53.76,1.14,1.47,1.61,2.29,1.38,2.4.6,5.38-2.94,4.66-1.12.13-1.53-.64-1.87-1.49Z"/><path class="cls-1" d="m129.3,19.94c.7.41,1.11,1.17,1.87,1.49,2.22,1.23,3.11.98,4.08-1.17.57-1.26,2.5-1.94,3.62-1.27.59.35.99,1.78.7,2.52-.33.85-.93,1.59-1.69,1.94-3.74,1.71-6.77,1.3-9.29-2.28-.41-.59-.68-1.3-.27-2.04.58.02.53.71.98.82Z"/><path class="cls-10" d="m137.69,10.63c1.1.05,3.76,3.29,3.59,4.25-.13.76-.83,1.23-1.32.78-1.05-.96-2.45-1.54-3.17-2.85-.49-.89-.38-1.47.33-1.96.21-.14.43-.25.58-.23Z"/><path class="cls-16" d="m58.34,46.14c-.66.61-1.11.47-1.55.18-.26-.17-.46-.43-.72-.59-.7-.42-2.24-.35-2.67.08-.48.49-.46,2.08.05,2.82.28.39.75.64.94,1.34-1.37-.27-2.49-.68-3.17-1.83-.38-.64-.62-1.35-.9-2.05-.43-1.1-.21-1.99.63-2.69.87-.73,1.83-1.28,3.07-.65.85.43,1.68.87,2.25,1.64.53.71,1.17,1.27,2.06,1.77Z"/><path class="cls-4" d="m69.2,54.83c1.63-.22,2.7.99,2.93,2.73.16,1.24-1.57,2.9-2.89,2.92-1.59.02-2.95-1.23-3.01-2.74-.06-1.58,1.3-2.9,2.97-2.91Z"/><path class="cls-18" d="m96.07,117.16c-4.44,0-7.87,0-11.31,0-3.73,0-7.43-.53-11.15-.8-.71-.05-1.48-.25-2.05-.8-.49-.48-1.05-.93-.66-1.76.31-.67.69-1.17,1.52-1.15.87.03,1.76-.1,2.62.03,5.82.86,11.67.78,17.52.7,1.76-.02,3.46.42,5.2.38,3.42-.08,6.83-.37,10.26-.44,1.65-.04,3.34-.28,5.01-.3.37,0,.77-.04,1.12.05,1.21.32,1.56,1.5.75,2.47-.89,1.07-2.18,1.08-3.4,1.22-5.47.62-10.96.31-15.44.38Z"/><path class="cls-20" d="m133.3,112.66c-1.79,0-2.41-.39-2.5-1.54-.09-1.15.64-1.91,2.33-2.15,3.25-.46,6.46-1.16,9.64-1.94,1.33-.33,2.6-.83,3.88-1.32,1.6-.62,2.73.36,2.54,2.05-.07.65-.43,1.01-.98,1.24-1.65.69-3.26,1.46-5.06,1.82-2.55.51-5.08,1.08-7.63,1.59-.74.15-1.47.23-2.21.24Z"/><path class="cls-20" d="m49.82,111.9c-1.46-.14-3.25-.87-5.1-1.37-1.37-.38-2.76-.77-4.03-1.44-1.05-.55-1.42-1.42-1.07-2.45.31-.9,1.21-1.39,2.3-1,2.92,1.04,5.87,1.97,8.88,2.71.12.03.23.1.34.16,1.15.6,1.74,1.52,1.49,2.31-.25.79-.96,1.12-2.81,1.08Z"/><path class="cls-22" d="m4.27,158.81c0,.41.08.85-.35,1.12,0-.41-.07-.85.35-1.12Z"/><path class="cls-14" d="m80.31,88.1c.24-.46.49-.57.73-.56,4.05.13,7.84-1.05,11.66-2.16,2-.58,4.01-.73,6.06-.16,1.73.48,2.79,1.58,3.34,3.2.64,1.87-.31,3.16-2.33,3.22-2.31.06-4.54-.57-6.82-.82-2.58-.28-5.15-.67-7.72-1.07-1.71-.27-3.41-.61-4.93-1.65Z"/><path class="cls-13" d="m133.41,84.57c.17.33.38.65.51,1,.42,1.1.3,1.49-.81,1.85-1.9.61-3.85,1.04-5.74,1.67-1.9.64-3.79,1.25-5.84,1.05-1.47-.14-2.8-.54-3.86-1.65-1.62-1.69-1.25-3.48.93-4.37,1.87-.77,3.86-.89,5.84-1.11.37-.04.75-.03,1.12-.04,2.67.24,5.25.97,7.84,1.6Z"/><path class="cls-5" d="m123.7,82.59c-.65-.03-1.35.27-1.91-.31.65,0,1.34-.18,1.91.31Z"/><path class="cls-23" d="m95.79,231.52c-19.74.1-37.32-1.15-53.97-7.39-29.39-11.02-53.62-48.25-35.69-87.93,1.72-3.8,3.99-7.36,6.17-10.92.8-1.31,1.03-1.81-.58-2.67-6.26-3.36-9.75-10.21-8.88-16.88.79-5.97,5.09-10.83,11.06-12.4,4.74-1.24,9.18-.39,13.32,2.13.99.6,1.49,1.04,1.5-.69,0-4.95,1.45-9.63,3.26-14.16,1.21-3.03,4.04-4.53,6.85-5.82,8.52-3.91,17.64-5.49,26.84-6.55,24.07-2.76,48.05-2.5,71.82,2.76,1.28.28,2.55.64,3.8,1.03,13.99,4.4,15.61,6.91,17.5,22.91.18,1.5.49,1.09,1.34.6,8.49-4.96,18.25-2.92,22.66,4.73,4.45,7.71,1.26,17.85-7.19,22.43-1.53.83-1.21,1.36-.47,2.45,15.55,23.04,16.3,50.72,2.19,72.56-11.88,18.39-28.92,28.23-50.35,31.31-11.05,1.59-22.09,2.72-31.18,2.5Zm6.5-3.77c3.37-.22,6.76-.27,10.1-.68,13.76-1.68,27.51-3.12,39.94-10.29,21.56-12.43,33.88-36.31,30.73-60.95-2.66-20.79-14.46-36.15-29.96-49.19-1.18-.99-1.83-1.87-.86-3.29,3.14-4.61,3.19-9.72,2.51-14.97-.11-.84-.34-1.15-1.14-.45-4.28,3.75-9.54,5.44-14.9,6.69-25.79,6.04-51.81,6.16-77.89,2.41-9.55-1.37-19.22-2.91-27.16-9.26-.97-.77-.83.21-.89.66-.73,5.25-.65,10.36,2.51,14.96.78,1.13.59,2.1-.48,2.94-10.79,8.41-19.34,18.71-25.08,31.09-17.37,37.51,5.88,73.75,34.94,83.76,18.64,6.42,38.11,7.02,57.63,6.58Zm-6.66-157.29c-12.83.04-23.87.62-34.81,2.48-7.58,1.29-15.19,2.62-21.85,6.83-3.48,2.2-3.41,4.26-.02,6.56,2.72,1.84,5.75,3.05,8.91,3.85,28.38,7.15,56.92,6.91,85.53,1.62,4.86-.9,9.61-2.3,13.96-4.74,1.62-.91,3.58-1.86,3.65-3.94.08-2.25-2.01-3.23-3.69-4.08-2.44-1.23-4.99-2.34-7.61-3.12-14.96-4.43-30.36-5.23-44.08-5.45ZM6.51,107.71c-.03,5.17,3.48,10.35,8.13,12.28,1.57.65,1.84-.6,2.43-1.33.77-.95-.42-.93-.8-1.18-3.37-2.17-5.09-5.17-4.43-9.19.53-3.26,2.58-5.38,5.79-6.17,3.96-.97,7.07.52,9.56,3.62.31.38.5,1.56,1.26.72.69-.76,2.46-.91,1.78-2.6-1.91-4.71-8.87-8.16-14.31-7.11-5.68,1.1-9.38,5.4-9.4,10.95Zm174.52.13c.02-5.66-3.85-10.12-9.68-11.14-5.33-.94-12.53,2.73-14.1,7.24-.56,1.62,1.15,1.86,1.88,2.6.79.8.92-.45,1.21-.81,2.5-3.1,5.62-4.56,9.58-3.59,3.3.81,5.34,3.05,5.82,6.38.56,3.94-1.21,6.88-4.51,8.98-.4.26-1.53.27-.75,1.21.6.73.89,1.93,2.45,1.26,4.59-1.99,8.09-7.09,8.11-12.13Zm-161.15-2.27c-2.35.15-4.19,1.13-4.38,3.79-.21,3.02,1.67,5.45,4.27,5.31,2.21-.12,4.53-2.95,4.91-4.99.41-2.23-2.19-3.73-4.8-4.1Zm152.23,4.08c-.29-2.61-1.8-4.06-4.42-4.01-2.57.04-4.25,1.57-5.1,3.95-.19.53,4.64,5.46,5.16,5.3,2.54-.79,4.16-2.4,4.35-5.24Z"/><path class="cls-6" d="m111.2,56.37c.53.57,1.02.66,1.45-.12.27-.48.68-.75,1.23-.53.5.2.79.59.67,1.17-.24,1.14.54,1,1.22.98.33,1.07.47,2.18.71,3.27.46,2.11-.67,4.46-2.55,5.6-1.52.93-3.92.87-5.31-.24-1.78-1.44-2.66-3.27-2.11-5.61.59-2.51,2.28-3.89,4.68-4.53Z"/><path class="cls-28" d="m111.2,56.37c-.41.56-.96.92-1.61,1.2-2.87,1.24-4.17,5.98-.63,8.66,1.31.99,3.8.95,5.08-.09,1.55-1.25,2.75-3.39,1.74-5.81-.34-.81-.64-1.64-.01-2.47,1.05-.59,1.49.15,1.84.9,1.17,2.49,1.02,4.93-.4,7.28-.32.53-.7,1.02-1.05,1.52-1.25.65-2.39,1.46-3.91,1.59-2.5.22-4.47-.69-6.22-2.33-.27-.56-.55-1.11-.8-1.68-1.69-3.84.11-8.49,3.81-9.84,1.29-.47,1.59-.32,2.15,1.04Z"/><path class="cls-31" d="m152.81,3.48c.86-.22,1.7-.44,2.54-.64.68-.16,1.29-.01,1.52.71.24.74-.22,1.18-.87,1.4-.65.22-1.31.42-1.98.57-.63.15-.8.48-.63,1.09.16.6.3,1.21.39,1.83.07.54-.14,1.01-.69,1.18-.64.2-1.1-.13-1.34-.71-.17-.4-.26-.83-.38-1.25-.38-1.32-.38-1.33-1.79-.98-.6.15-1.19.37-1.8.5-.71.15-1.25-.15-1.45-.85-.21-.72.16-1.23.84-1.43.84-.24,1.7-.42,2.55-.59.55-.11.7-.43.58-.94-.15-.67-.32-1.34-.4-2.02-.09-.71.19-1.24.97-1.33.66-.08,1.08.29,1.22.9.19.84.25,1.72.72,2.57Z"/><path class="cls-23" d="m241.44,109.05c1.38.69,2.75,1.72,2.92,3.01,0,.52,0,1.2-.26,1.8-.77,1.38-1.29,3.87-1.81,5.42-.26.77-1.38,1.81-1.89,2.06-.26,0-.43-.09-.43-.6-.17-3.18-.77-5.16-1.72-6.19-1.2-1.29-4.21-3.87-10.49-3.87-4.47,0-7.57,1.46-9.63,3.27-2.58,2.32-5.16,6.79-5.16,13.84,0,6.19,2.24,10.92,4.9,13.75,3.27,3.44,7.65,4.73,12.47,4.73,3.7,0,6.36-1.03,7.74-2.15,2.06-1.46,4.21-4.3,5.67-7.05.17-.43.43-.6.69-.43.34.26.86,1.72.77,2.41-.34,1.55-1.81,5.42-3.35,7.39-.77.95-1.72,1.55-2.58,1.98-3.18,1.38-8.77,2.32-13.24,2.32-11.52,0-23.12-4.99-23.12-20.2,0-8.17,4.13-13.84,8.68-17.11,4.47-3.27,12.29-6.36,19.69-6.36,4.56,0,8,1.03,10.14,1.98Z"/><path class="cls-23" d="m254,122.29c-.09-.77-.43-1.2-1.2-1.55-1.03-.43-2.15-.86-3.35-1.38-.77-.26,1.03-1.72,1.55-1.72,5.42-.86,9.37-2.67,11.61-4.04.52-.34,1.12-.43.86.34-.69,3.78-.77,11.43-.77,17.8,0,5.67.17,9.8.43,11.69.43,1.98,1.89,2.75,5.85,3.27.77.09.69.34.17.86-1.29,1.2-2.32,1.81-3.09,1.81-2.24,0-6.1-.34-8.51-.34-3.78,0-6.53.43-8.17.6-.69.09-.69-.17-.26-.69.86-1.03,1.98-1.55,3.61-2.32.77-.43,1.12-1.03,1.2-1.72.52-3.18.6-7.91.6-12.72,0-5.24-.17-8.08-.52-9.89Zm1.2-17.54c-1.29-1.03-1.81-2.84-1.81-4.99,0-.77.26-1.81,1.2-2.49,1.2-.77,4.9-1.63,7.05-1.63.95-.09,1.46.17.77,1.2-.95,1.63-.95,5.5.17,7.65.26.43,0,.69-.34.95-.43.17-1.89.43-2.41.43-1.81,0-3.35-.09-4.64-1.12Z"/><path class="cls-23" d="m276.6,122.29c-.34-.6-.86-1.03-1.72-1.38-.86-.43-1.98-.6-3.44-.95-.43-.09,1.03-1.98,1.55-2.06,3.61-.6,8.08-2.67,10.83-4.56.52-.34.86-.17,1.03.52.43,1.55.95,5.67.95,8,0,.52.43.69.86.26,1.98-2.32,4.21-4.73,6.02-6.28,1.46-1.38,3.18-2.24,4.56-2.24,1.81,0,3.01,1.03,3.87,2.15.95,1.2,1.2,2.49,1.2,3.61,0,2.49-2.24,4.81-4.13,6.02-.86.52-1.55.6-1.72-.26-.43-2.23-1.98-3.52-4.13-3.52-1.89,0-4.13,1.72-5.33,3.61-.95,1.29-1.2,2.58-1.2,4.81.09,3.01.09,9.8.09,12.21,0,1.29.52,2.06,1.46,2.58,1.63,1.03,4.73,1.46,7.48,1.46.52,0,.6.17.26.77-.43.69-1.29,1.55-2.23,1.89-1.12.34-2.49.43-3.95.43-2.32,0-5.85-.34-8.51-.34-2.84,0-5.42.17-7.05.43-.69.26-1.12,0-.69-.6.52-.95,1.98-1.89,2.67-2.41.86-.77,1.29-1.38,1.63-2.75.34-1.29.6-5.33.6-12.29,0-5.33-.43-7.91-.95-9.11Z"/><path class="cls-23" d="m333.6,116.36c.95,1.12,1.29,2.32,1.29,3.44,0,2.67-2.75,4.81-4.21,5.42-.69.26-1.12.17-1.2-.34-.09-1.29-.43-2.67-1.2-3.7-1.46-2.41-3.52-3.18-6.53-3.18-2.41,0-4.13.86-5.5,2.06-1.89,1.63-3.35,5.07-3.35,10.06,0,8.94,4.47,14.44,11.52,14.44,4.21,0,8.68-2.23,11.43-5.16.43-.52.69-.34.69.17,0,1.12-.69,2.75-1.29,3.35-3.09,3.09-6.36,4.99-9.97,6.19-2.32.69-4.47,1.03-6.62,1.03-7.14,0-13.93-4.38-13.93-15.13,0-6.88,3.01-11.26,6.62-14.27,3.35-2.92,10.32-7.14,14.87-7.14,3.87,0,6.19,1.38,7.39,2.75Z"/><path class="cls-23" d="m369.19,124.62c0,.69.34.86.77.77.52-.09,1.03-.17,1.55-.17.52-.09.6-.09.6.34-.09.52-.86,1.46-1.63,1.81-2.58,1.38-6.28,1.98-9.97,2.49-3.27.52-7.31.95-11,1.2-.77.09-1.03.95-1.03,1.46.17,8,4.38,12.04,11.43,12.04,4.73,0,9.28-2.84,11.35-4.81.43-.43.77-.43.77.17,0,.86-.6,2.23-1.2,2.84-2.75,2.92-7.48,5.16-11.18,6.45-1.89.6-4.64.95-6.53.95-7.05,0-12.98-4.99-12.98-15.47,0-6.28,2.67-11.09,4.73-13.41,1.72-1.89,4.3-3.78,7.39-5.42,2.75-1.55,5.5-2.24,7.14-2.24,7.56,0,10.14,6.19,9.8,11Zm-20.55,1.55c-.09.95.43,1.46,1.81,1.46,3.35,0,7.39-.26,9.46-.69,1.2-.17,1.63-.69,1.63-1.55,0-3.61-1.38-7.82-6.36-7.82-3.09,0-6.1,2.92-6.53,8.6Z"/><path class="cls-23" d="m386.22,95.99c0,6.88-6.88,12.81-10.66,14.53-.69.26-2.24.69-2.84.69-1.03,0-.95-.6,0-1.29,3.44-2.41,6.79-6.62,6.79-11.26,0-2.49-1.46-3.53-3.09-3.44-1.12,0-.86-.95-.09-1.72,1.29-1.2,3.95-2.58,5.67-2.58,3.52,0,4.21,3.52,4.21,5.07Z"/><path class="cls-23" d="m405.13,114.9c.95.69,1.46,1.89.86,3.18-.77,1.38-1.12,2.92-1.29,4.47-.09.86-1.03,1.72-1.63,2.06-.43.26-.69.09-.69-.43-.26-1.81-.52-4.13-1.81-5.24-1.2-1.03-2.75-1.63-4.81-1.63-3.44,0-5.76,2.49-5.76,5.42,0,1.72.95,3.18,3.01,4.04,1.72.77,7.14,2.15,9.8,3.01,3.87,1.2,5.5,3.35,5.5,6.62,0,4.13-3.44,7.74-6.53,9.8-3.44,2.15-7.65,4.04-12.38,4.04-3.44,0-5.85-.95-7.14-1.98-.6-.52-1.12-2.32-.52-3.01.95-1.55,2.15-3.53,2.92-5.93.17-.43.34-.52.6-.43.43.17.95,1.03.95,1.55,0,1.72.52,2.84,1.63,3.95,1.38,1.38,3.44,2.15,6.1,2.15,4.3,0,6.62-2.41,6.71-5.42,0-1.72-.95-3.01-3.18-3.78-2.41-.86-5.93-1.72-8.51-2.58-3.18-1.03-5.76-2.92-5.76-6.96,0-5.16,3.09-8.25,7.05-10.92,3.27-2.06,6.71-3.27,9.8-3.27,2.49,0,4.04.52,5.07,1.29Z"/><path class="cls-23" d="m241.44,175.75c1.38.69,2.75,1.72,2.92,3.01,0,.52,0,1.2-.26,1.8-.77,1.38-1.29,3.87-1.81,5.42-.26.77-1.38,1.81-1.89,2.06-.26,0-.43-.09-.43-.6-.17-3.18-.77-5.16-1.72-6.19-1.2-1.29-4.21-3.87-10.49-3.87-4.47,0-7.57,1.46-9.63,3.27-2.58,2.32-5.16,6.79-5.16,13.84,0,6.19,2.24,10.92,4.9,13.75,3.27,3.44,7.65,4.73,12.47,4.73,3.7,0,6.36-1.03,7.74-2.15,2.06-1.46,4.21-4.3,5.67-7.05.17-.43.43-.6.69-.43.34.26.86,1.72.77,2.41-.34,1.55-1.81,5.42-3.35,7.39-.77.95-1.72,1.55-2.58,1.98-3.18,1.38-8.77,2.32-13.24,2.32-11.52,0-23.12-4.99-23.12-20.2,0-8.17,4.13-13.84,8.68-17.11,4.47-3.27,12.29-6.36,19.69-6.36,4.56,0,8,1.03,10.14,1.98Z"/><path class="cls-23" d="m278.5,194.24c.09,6.45-.26,11.78-.6,15.22,0,1.03.34,1.2.77,1.46,1.29.77,4.04.86,5.93.69.6-.17-.43,1.38-1.03,1.89-3.1,2.49-9.37,3.78-12.38,3.78-.86,0-1.63-.34-1.46-1.2.17-.86.17-3.35.26-4.47,0-.6-.17-.86-.77-.6-2.06,1.2-4.3,2.75-7.14,4.3-1.89,1.03-3.09,1.46-4.9,1.46-3.52,0-7.56-2.84-7.56-8.08,0-3.09,2.75-5.67,5.16-7.05,3.7-2.06,11-4.73,14.01-5.42.86-.17,1.2-.6,1.2-1.29,0-5.16-1.98-9.71-7.48-9.71-1.98,0-3.35.86-4.3,1.72-1.63,1.55-2.49,4.73-2.75,7.31-.09.77-.34,1.29-1.2.86-1.81-.95-3.27-3.09-3.27-4.73,0-1.2.52-1.81,2.15-2.92,2.84-2.06,6.53-4.21,9.37-5.5,2.24-1.03,4.13-1.63,5.59-1.63,8,0,10.4,7.57,10.4,13.93Zm-9.03,13.75c.43-.43.77-1.03.77-1.89,0-1.72.09-3.7.09-5.42,0-.6-.26-1.38-1.12-1.38-2.75,0-7.14,1.38-8.94,2.49-1.55.95-2.15,1.63-2.15,3.18,0,3.01,2.15,6.02,5.24,6.02,2.58,0,4.99-1.55,6.1-3.01Z"/><path class="cls-23" d="m302.23,209.62c1.29,1.03,2.75,1.46,4.64,1.46,2.32,0,4.9-1.55,6.36-3.44.69-1.12.86-2.06.86-3.44.09-7.05.26-14.36.26-15.99,0-.77-.26-1.12-1.12-1.55-1.63-.69-3.78-1.12-5.67-1.63-.26,0-.43-.17-.09-.6.6-.43,1.98-1.46,2.41-1.46,5.33-.26,10.57-1.55,13.07-2.49.69-.26.86-.17.69.86-.69,3.18-1.03,9.89-1.03,17.11,0,5.93.17,8.68.52,10.4.34,1.38.86,1.8,1.89,2.06,1.29.26,3.09.34,4.38.26.52-.09.6.09.43.43-.17.52-.69,1.29-1.29,1.63-3.61,2.32-8.77,4.04-11.43,4.04-.6,0-1.46-.52-1.72-1.29-.43-1.38-.69-3.61-.77-5.07-.09-.69-.69-.69-1.03-.34-2.15,1.72-5.07,3.61-7.05,4.73-1.55.86-3.78,1.55-5.67,1.55-7.39,0-10.06-4.99-10.06-12.98,0-6.96.43-13.33.6-15.22.09-.6-.09-1.12-.69-1.55-1.03-.69-3.01-1.46-4.99-2.06-.26-.09-.52-.17-.26-.43.69-.6,1.38-1.38,2.06-1.38,4.56-.43,9.97-1.63,12.72-3.01.43-.17.69.17.43.77-1.03,3.01-1.29,9.03-1.29,18.05,0,6.28.86,9.11,2.84,10.57Z"/><path class="cls-23" d="m335.58,165.44c-.17-.86-.6-1.29-1.55-1.63-1.2-.34-2.32-.52-4.38-.86-.34-.09-.52-.26-.34-.52.34-.52,1.55-1.46,2.24-1.55,2.06-.26,6.28-.77,9.2-1.81,1.38-.43,2.92-1.2,4.04-1.89.52-.43.77-.09.6.77-.43,2.24-.95,9.28-.95,29.23,0,15.65.26,20.8.6,23.47.26,1.03.52,1.2,1.55,1.38,1.46.17,3.7.69,5.07,1.03.26.09.43.43,0,.77-1.2,1.12-3.01,2.24-3.52,2.24-1.38-.09-4.3-.34-8.34-.34-4.64,0-8.77.52-10.23.86-.6.09-.86,0-.52-.6.34-.52,1.2-1.72,1.81-1.98,1.03-.6,1.89-.86,2.92-1.29.86-.34,1.2-.86,1.46-1.89.52-2.41.95-8.6.95-25.53,0-13.75-.26-17.54-.6-19.86Z"/><path class="cls-23" d="m379.51,180.65c.69.09.95-.34.95-1.03,0-7.05-.09-10.32-.34-13.5,0-1.98-.09-2.32-.95-2.49-1.38-.26-3.27-.43-5.67-.6-.43-.09-.52-.26-.17-.52.95-.86,1.81-1.89,2.49-1.98,3.7-.34,6.71-.77,9.54-1.72,1.72-.52,2.92-1.03,3.95-1.72.95-.69,1.2-.43.95.52-1.12,4.13-1.63,12.12-1.63,29.83,0,14.61.26,19.26,1.03,21.84.34.95.86,1.2,1.63,1.38.95.17,3.35.17,4.38,0,.86-.09.95.43-.26,1.81-2.58,3.01-9.71,4.81-12.72,4.81-.95,0-1.38-.6-1.55-1.2-.26-.77-.43-1.98-.52-3.87,0-1.55-.52-1.63-1.38-1.03-2.58,1.55-5.93,3.35-7.82,4.13-1.81.86-3.18,1.38-5.16,1.38-5.67,0-12.21-4.9-12.21-14.44,0-5.93,2.41-10.66,5.16-13.24,2.23-2.24,6.45-4.9,9.46-6.36,2.49-1.2,5.93-2.32,8.08-2.32,1.2,0,2.15.17,2.75.34Zm-12.72,5.85c-2.32,1.89-4.21,5.59-4.21,10.75,0,7.39,4.04,13.67,10.32,13.67,2.23,0,4.56-.95,6.36-2.49.86-.69,1.12-1.29,1.12-2.32v-17.19c0-.95-.26-1.8-.86-2.32-1.46-1.29-3.27-2.15-6.71-2.15-2.32,0-4.38.77-6.02,2.06Z"/><path class="cls-23" d="m402.81,188.99c-.34-.6-.86-1.03-1.72-1.38-.86-.43-1.98-.6-3.44-.95-.43-.09,1.03-1.98,1.55-2.06,3.61-.6,8.08-2.67,10.83-4.56.52-.34.86-.17,1.03.52.43,1.55.95,5.67.95,8,0,.52.43.69.86.26,1.98-2.32,4.21-4.73,6.02-6.28,1.46-1.38,3.18-2.24,4.56-2.24,1.81,0,3.01,1.03,3.87,2.15.95,1.2,1.2,2.49,1.2,3.61,0,2.49-2.24,4.81-4.13,6.02-.86.52-1.55.6-1.72-.26-.43-2.24-1.98-3.52-4.13-3.52-1.89,0-4.13,1.72-5.33,3.61-.95,1.29-1.2,2.58-1.2,4.81.09,3.01.09,9.8.09,12.21,0,1.29.52,2.06,1.46,2.58,1.63,1.03,4.73,1.46,7.48,1.46.52,0,.6.17.26.77-.43.69-1.29,1.55-2.23,1.89-1.12.34-2.49.43-3.95.43-2.32,0-5.85-.34-8.51-.34-2.84,0-5.42.17-7.05.43-.69.26-1.12,0-.69-.6.52-.95,1.98-1.89,2.67-2.41.86-.77,1.29-1.38,1.63-2.75.34-1.29.6-5.33.6-12.29,0-5.33-.43-7.91-.95-9.11Z"/><path class="cls-23" d="m467.29,195.53c0,5.16-1.72,9.54-4.56,12.46-2.49,2.75-6.62,5.24-9.63,6.71-3.01,1.46-6.28,2.15-8.25,2.15-6.45,0-13.93-4.04-13.93-15.22,0-7.39,3.35-12.12,6.36-14.44,2.58-1.98,5.42-3.44,8.34-4.81,2.06-.95,5.42-2.06,7.65-2.06,9.28,0,14.01,6.79,14.01,15.22Zm-25.02-8.34c-1.63,1.8-3.18,5.5-3.18,10.06,0,9.37,4.9,15.04,11.09,15.04,2.15,0,3.7-.77,5.07-1.89,1.72-1.29,3.61-4.38,3.61-10.75,0-7.74-3.18-15.04-11.09-15.04-2.15,0-4.13,1.12-5.5,2.58Z"/><path class="cls-23" d="m476.14,188.99c-.17-.69-.43-1.03-1.03-1.38-1.12-.52-2.32-.95-4.04-1.38-.77-.09.95-1.98,1.55-2.06,4.81-.6,8.85-2.75,10.75-4.13.69-.52.95-.17,1.03.52.34,1.12.52,3.96.52,5.67,0,.69.43.86.95.52,1.89-1.38,4.56-3.27,6.53-4.47,1.72-1.12,3.7-1.98,6.02-1.98,8.94,0,10.32,8.6,10.32,14.79,0,5.24-.69,11.43-.69,14.96-.09.69.17,1.12.86,1.55,1.2.86,3.44,1.46,5.67,1.81.52.09.52.34.17.77-.69.6-1.38,1.2-2.06,1.46-2.32.69-6.62.95-9.11.95-2.84,0-4.73-.09-5.85-.52-.34-.09-.69-.43-.17-.86,1.2-1.2,1.72-2.32,2.06-3.52.34-1.12.69-6.02.69-12.98,0-8.08-2.41-12.38-7.39-12.38-2.58,0-4.81,1.12-6.79,3.44-.86.86-1.12,1.89-1.12,3.01,0,5.5.09,14.53.17,17.88,0,1.03.6,1.2,1.29,1.38,1.03.17,3.44.52,4.3.86.43.17.43.43.09.77-1.55,1.38-3.09,2.41-3.61,2.41-1.38-.17-3.78-.34-6.79-.34-3.78,0-7.65.26-9.8.69-.43.09-.6,0-.26-.6.43-.86,1.29-1.89,1.81-2.15.69-.34,1.55-.6,2.49-1.12.95-.43,1.2-1.12,1.38-2.06.43-1.72.69-6.45.69-11.35,0-5.24-.17-8.6-.6-10.14Z"/></g></g></svg>